<?xml version="1.0" encoding="UTF-8"?>
<svg id="_图层_2" data-name="图层 2" xmlns="http://www.w3.org/2000/svg" viewBox="0 0 144.24 64.82">
  <defs>
    <style>
      .cls-1 {
        fill: #040000;
        font-family: SimHei, SimHei;
        font-size: 4.2px;
      }

      .cls-2 {
        stroke-width: .2px;
      }

      .cls-2, .cls-3 {
        fill: none;
        stroke: #040000;
        stroke-linecap: round;
        stroke-linejoin: round;
      }

      .cls-3 {
        stroke-width: .15px;
      }
    </style>
  </defs>
  <g id="_图层_1-2" data-name="图层 1">
    <text class="cls-1" transform="translate(11.25 19.74)"><tspan x="0" y="0">1</tspan></text>
    <text class="cls-1" transform="translate(0 47.01)"><tspan x="0" y="0">3</tspan></text>
    <text class="cls-1" transform="translate(8.29 53.65)"><tspan x="0" y="0">4</tspan></text>
    <text class="cls-1" transform="translate(62.88 3.61)"><tspan x="0" y="0">2</tspan></text>
    <text class="cls-1" transform="translate(74 12.67)"><tspan x="0" y="0">5</tspan></text>
    <text class="cls-1" transform="translate(142.13 41.95)"><tspan x="0" y="0">6</tspan></text>
    <path class="cls-3" d="M15.39,42.56l-1.85-12.83,1.85,12.83Z"/>
    <path class="cls-3" d="M13.54,29.73c-.08-1.38,.67-2.68,1.89-3.31"/>
    <path class="cls-3" d="M15.44,26.42c-1.23,.63-1.97,1.93-1.89,3.31"/>
    <path class="cls-3" d="M48,9.12c-1.81-.81-3.89-.78-5.68,.07"/>
    <path class="cls-3" d="M42.32,9.19c1.79-.85,3.87-.88,5.68-.07"/>
    <path class="cls-3" d="M17.22,48.62l19.41,14.94-19.41-14.94Z"/>
    <path class="cls-3" d="M69.38,21.74c1.17,.55,1.92,1.74,1.92,3.03"/>
    <path class="cls-3" d="M71.3,24.78c0-1.3-.75-2.48-1.92-3.03"/>
    <path class="cls-3" d="M15.97,46.61c.14,.81,.59,1.53,1.25,2.01"/>
    <path class="cls-3" d="M17.22,48.62c-.67-.48-1.11-1.2-1.25-2.01"/>
    <line class="cls-3" x1="48" y1="9.12" x2="48.33" y2="9.28"/>
    <line class="cls-3" x1="48.33" y1="9.28" x2="48" y2="9.12"/>
    <path class="cls-3" d="M16.09,45.81c.18,.65,.58,1.21,1.12,1.61"/>
    <path class="cls-3" d="M17.21,47.42c-.54-.39-.94-.96-1.12-1.61"/>
    <line class="cls-3" x1="70.17" y1="37.6" x2="71.3" y2="24.78"/>
    <path class="cls-3" d="M56.86,25.6c-1.2-.65-1.2-2.04-.2-2.76,1-.71,3.02-.74,4.1-.07,1.08,.67,1.23,2.02,.25,2.75-.98,.73-3.11,.84-4.15,.07Z"/>
    <path class="cls-3" d="M39.6,38.34c-.91-.54-.83-1.71,0-2.3,.84-.6,2.44-.62,3.25-.06,.82,.56,.85,1.69,.03,2.3-.82,.61-2.5,.7-3.28,.06Z"/>
    <line class="cls-3" x1="18.99" y1="41.62" x2="18.29" y2="41.97"/>
    <line class="cls-3" x1="17.21" y1="47.42" x2="36.71" y2="62.36"/>
    <path class="cls-3" d="M36.71,62.36c2.31,1.57,5.36,1.52,7.62-.14"/>
    <line class="cls-3" x1="44.33" y1="62.22" x2="68.73" y2="42.55"/>
    <path class="cls-3" d="M68.73,42.55c.58-.44,.99-1.07,1.16-1.78"/>
    <path class="cls-3" d="M30.84,50.09c-.16-.03-.29,0-.38,.07"/>
    <path class="cls-3" d="M30.46,50.16c-.26,1.12,.25,2.28,1.26,2.84"/>
    <path class="cls-3" d="M31.72,53c.27,.3,.69,.41,1.07,.26,.02-.02,.04-.04,.05-.06"/>
    <line class="cls-3" x1="32.84" y1="53.2" x2="33.02" y2="52.98"/>
    <path class="cls-3" d="M26.91,48.3c0,.11,.03,.88,.04,.99,0,.07,0,.14,0,.21,.03,.7-.74,.79-1.48,.18"/>
    <line class="cls-3" x1="25.47" y1="49.68" x2="19.35" y2="45.07"/>
    <path class="cls-3" d="M19.35,45.07c-.89-.7-1.52-1.68-1.77-2.79"/>
    <line class="cls-3" x1="17.58" y1="42.28" x2="17.5" y2="41.68"/>
    <path class="cls-3" d="M17.5,41.68c-.1-.22-.06-.47,.1-.65,.16-.17,.42-.23,.64-.13,.26,.08,.68,.22,.89,.38"/>
    <path class="cls-3" d="M19.13,41.28l6.33,4.69s.02,.02,.04,.03"/>
    <path class="cls-3" d="M25.51,46.01c.72,.58,1.22,1.39,1.4,2.3"/>
    <line class="cls-3" x1="25.91" y1="28.48" x2="25.87" y2="28.04"/>
    <path class="cls-3" d="M25.87,28.04c0-.2,.11-.39,.28-.49"/>
    <line class="cls-3" x1="26.15" y1="27.55" x2="43.63" y2="15.9"/>
    <path class="cls-3" d="M43.63,15.9c.36-.22,.81-.22,1.18-.02"/>
    <line class="cls-3" x1="44.81" y1="15.88" x2="54.06" y2="21.6"/>
    <path class="cls-3" d="M54.06,21.6c.16,.08,.27,.25,.28,.43,0,.14-.09,.28-.23,.37"/>
    <line class="cls-3" x1="54.11" y1="22.4" x2="36.66" y2="34.78"/>
    <path class="cls-3" d="M36.66,34.78c-.39,.25-.89,.26-1.28,.02"/>
    <path class="cls-3" d="M35.38,34.8l-9.28-6.4c-.08-.06-.15-.13-.19-.21"/>
    <path class="cls-3" d="M44.01,37.43l.16,.54c.13,1.05-1.34,2.09-2.85,2.14-1.5,.05-3.04-.89-2.98-1.95"/>
    <line class="cls-3" x1="38.35" y1="38.16" x2="38.47" y2="37.52"/>
    <path class="cls-3" d="M18.29,41.97c-.05-.16,0-.33,.12-.45"/>
    <path class="cls-3" d="M18.41,41.53c.24-.08,.5-.01,.67,.17"/>
    <line class="cls-3" x1="19.08" y1="41.7" x2="25.42" y2="46.42"/>
    <path class="cls-3" d="M25.42,46.42c.54,.41,.91,1,1.05,1.67"/>
    <path class="cls-3" d="M26.47,48.08l.07,.66c.02,.19-.03,.35-.12,.42"/>
    <path class="cls-3" d="M26.41,49.16c-.26,.09-.55,.02-.73-.19"/>
    <line class="cls-3" x1="25.68" y1="48.97" x2="19.41" y2="44.26"/>
    <path class="cls-3" d="M19.41,44.26c-.52-.41-.88-.98-1.03-1.62"/>
    <line class="cls-3" x1="18.38" y1="42.63" x2="18.29" y2="41.97"/>
    <polygon class="cls-3" points="61.18 28.59 61.06 28.66 61.7 29.5 61.81 29.45 61.63 29.2 62 28.92 62.4 29.01 62.54 28.92 61.18 28.59"/>
    <g>
      <path class="cls-3" d="M56.49,33.83c-.06,.01-.13,0-.16-.01"/>
      <path class="cls-3" d="M56.32,33.82l-1.24-.86,1.67-.4s.1,0,.14,.04"/>
      <polyline class="cls-3" points="56.89 32.6 56.9 32.68 56.49 33.83"/>
    </g>
    <path class="cls-3" d="M29.6,49.41c.14,.04,.37,.11,.49,.17"/>
    <path class="cls-3" d="M30.09,49.58c1.7,1.03,2.88,2.72,3.27,4.66,0,.07,0,.14,0,.2,0,.77-.52,1.1-1.27,.86-.74-.24-1.71-1.04-2.44-2.01-.73-.98-1.23-2.13-1.24-2.91-.02-.78,.44-1.19,1.18-.98"/>
    <text/>
    <path class="cls-3" d="M61.85,28.85s0,.01,0,.02"/>
    <path class="cls-3" d="M61.85,28.87l-.29,.24s0-.02,0-.04c-.09-.15-.19-.28-.32-.41"/>
    <line class="cls-3" x1="61.23" y1="28.66" x2="61.85" y2="28.85"/>
    <line class="cls-3" x1="49.71" y1="33.31" x2="49.7" y2="33.57"/>
    <path class="cls-3" d="M49.7,33.57c-.42,.8-1.17,1.38-2.05,1.6-.88,.21-1.81,.04-2.55-.48"/>
    <path class="cls-3" d="M45.1,34.68c-.39-.24-.67-.62-.8-1.06"/>
    <path class="cls-3" d="M44.3,33.62l-.02-.27c0-.3,.08-.6,.24-.87,.14-.24,.35-.45,.59-.63,.24-.17,.52-.31,.82-.4,.08-.02,.15-.05,.23-.07,.25-.06,.52-.09,.79-.1,.29,0,.58,.02,.86,.09,.06,.01,.11,.03,.17,.04,.31,.08,.59,.21,.84,.37"/>
    <path class="cls-3" d="M48.8,31.79c.51,.3,.85,.83,.9,1.42,.11,.21,.16,.43,.16,.64,.1,1.02-1.37,1.99-2.85,2-1.48,.01-2.97-.93-2.88-1.95,0-.2,.04-.41,.13-.62"/>
    <path class="cls-3" d="M42.32,9.19c-.13,.07-.26,.14-.38,.22"/>
    <line class="cls-3" x1="41.94" y1="9.41" x2="15.76" y2="26.26"/>
    <path class="cls-3" d="M15.76,26.26c-.93,.37-1.58,1.23-1.69,2.22-.11,1,.35,1.97,1.18,2.53"/>
    <line class="cls-3" x1="15.26" y1="31.02" x2="36.09" y2="46.01"/>
    <path class="cls-3" d="M36.09,46.01c2.3,1.48,5.26,1.42,7.51-.14"/>
    <line class="cls-3" x1="43.59" y1="45.87" x2="69.63" y2="26.15"/>
    <path class="cls-3" d="M69.63,26.15c.8-.55,1.23-1.5,1.11-2.46-.12-.96-.78-1.77-1.69-2.1"/>
    <polyline class="cls-3" points="69.05 21.59 48.71 9.51 48.33 9.28"/>
    <path class="cls-3" d="M13.54,29.73c.15,.82,.62,1.55,1.32,2.01"/>
    <line class="cls-3" x1="14.87" y1="31.75" x2="35.66" y2="46.78"/>
    <path class="cls-3" d="M35.66,46.78c2.57,1.66,5.89,1.6,8.4-.16"/>
    <line class="cls-3" x1="44.05" y1="46.62" x2="70.04" y2="26.85"/>
    <path class="cls-3" d="M70.04,26.85c.7-.48,1.15-1.23,1.26-2.07"/>
    <polyline class="cls-3" points="71.3 24.78 70.17 37.6 69.82 41.66"/>
    <path class="cls-3" d="M69.82,41.66c-.1,.82-.52,1.57-1.19,2.07"/>
    <line class="cls-3" x1="68.63" y1="43.73" x2="44.42" y2="63.4"/>
    <path class="cls-3" d="M44.42,63.4c-2.29,1.74-5.43,1.8-7.79,.16"/>
    <path class="cls-3" d="M36.64,63.56c2.36,1.64,5.5,1.58,7.79-.16"/>
    <line class="cls-3" x1="44.42" y1="63.4" x2="68.63" y2="43.73"/>
    <path class="cls-3" d="M68.63,43.73c.66-.5,1.09-1.25,1.19-2.07"/>
    <path class="cls-3" d="M38.47,37.52c0-.31,.09-.61,.26-.89,.15-.24,.36-.46,.61-.64,.25-.18,.53-.32,.84-.42,.15-.05,.31-.09,.47-.12,.19-.03,.38-.05,.57-.05,.16,0,.31,0,.47,.02,.2,.02,.39,.06,.58,.11,.31,.09,.6,.22,.85,.39,.25,.17,.47,.38,.62,.62,.17,.27,.26,.56,.27,.87,0,.09-.01,.23-.03,.32"/>
    <path class="cls-3" d="M43.98,37.75c-.42,.83-1.18,1.43-2.08,1.66-.9,.22-1.86,.04-2.62-.49"/>
    <path class="cls-3" d="M39.28,38.91c-.48-.31-.78-.82-.81-1.39"/>
    <polygon class="cls-3" points="61.77 28.16 62.28 27.84 62.36 27.89 61.88 28.22 62.19 28.39 62.61 28.08 62.72 28.18 62.39 28.44 62.35 28.47 62.85 28.68 62.74 28.77 62.12 28.49 61.62 28.26 61.77 28.16"/>
    <path class="cls-3" d="M69.99,39.3c-.19,.65-.58,1.22-1.12,1.63"/>
    <line class="cls-3" x1="68.86" y1="40.93" x2="44.36" y2="60.63"/>
    <path class="cls-3" d="M44.36,60.63c-2.32,1.74-5.5,1.81-7.89,.16"/>
    <line class="cls-3" x1="36.48" y1="60.79" x2="16.83" y2="45.83"/>
    <path class="cls-3" d="M16.83,45.83c-.48-.35-.84-.84-1.03-1.41"/>
    <path class="cls-3" d="M55.24,29.3c.08,.19,.12,.39,.11,.58,.08,.99-1.39,1.89-2.84,1.87-1.45-.02-2.9-.96-2.79-1.95,0-.16,.03-.33,.1-.5"/>
    <path class="cls-3" d="M70.14,37.9c-.09,.82-.53,1.57-1.19,2.07"/>
    <line class="cls-3" x1="68.94" y1="39.97" x2="44.34" y2="59.68"/>
    <path class="cls-3" d="M44.34,59.68c-2.33,1.74-5.52,1.81-7.92,.16"/>
    <line class="cls-3" x1="36.42" y1="59.84" x2="16.7" y2="44.86"/>
    <path class="cls-3" d="M16.7,44.86c-.67-.48-1.13-1.2-1.27-2.01"/>
    <line class="cls-3" x1="15.43" y1="42.85" x2="15.39" y2="42.56"/>
    <path class="cls-3" d="M54.3,27.79c.51,.29,.85,.81,.92,1.39,0,.05,0,.1,0,.14"/>
    <line class="cls-3" x1="55.22" y1="29.33" x2="55.19" y2="29.62"/>
    <path class="cls-3" d="M55.19,29.62c-.45,.74-1.18,1.27-2.03,1.46-.85,.19-1.73,.01-2.45-.48"/>
    <path class="cls-3" d="M50.72,30.6c-.41-.24-.71-.63-.83-1.09"/>
    <line class="cls-3" x1="49.89" y1="29.5" x2="49.88" y2="29.26"/>
    <path class="cls-3" d="M49.88,29.26c0-.38,.15-.75,.4-1.03"/>
    <path class="cls-3" d="M50.27,28.22c.35-.37,.8-.64,1.29-.78"/>
    <path class="cls-3" d="M51.56,27.44c.92-.26,1.91-.14,2.74,.35"/>
    <path class="cls-3" d="M63.96,27.87s.08-.05,.12-.07c.06-.05,.11-.09,.13-.22"/>
    <path class="cls-3" d="M64.22,27.57c-.03-.1-.1-.19-.19-.23-.1-.05-.21-.05-.3,0-.07,.02-.15,.06-.26,.1-.09,.04-.19,.08-.23,.08-.04,0-.08,0-.12-.02-.03-.01-.05-.03-.06-.05-.02-.03,0-.06,.03-.09,.02-.02,.04-.04,.07-.06,.02-.02,.05-.03,.08-.05,.05-.02,.09-.03,.12-.04,.06,0,.13,.02,.2,.04"/>
    <path class="cls-3" d="M63.65,27.18c-.13-.07-.29-.09-.43-.04-.14,.05-.26,.15-.33,.28"/>
    <path class="cls-3" d="M62.9,27.42c.03,.09,.09,.16,.17,.2,.08,.04,.18,.04,.26,0,.07-.02,.14-.04,.23-.09,.09-.04,.16-.07,.21-.08,.06-.02,.1-.02,.14-.02,.15,.02,.16,.07,.17,.11,0,.04,0,.06,0,.08,0,.02-.02,.05-.04,.08-.02,.03-.05,.05-.09,.07-.03,.02-.07,.03-.16,.04-.08,0-.21,0-.31-.01,0,.14,.31,.15,.49,.07"/>
    <path class="cls-3" d="M42.43,14.84c1.08-.64,2.43-.66,3.53-.06"/>
    <line class="cls-3" x1="45.96" y1="14.78" x2="55.23" y2="20.46"/>
    <path class="cls-3" d="M55.23,20.46c.47,.19,.8,.64,.83,1.15,.03,.51-.23,1-.67,1.25"/>
    <line class="cls-3" x1="55.39" y1="22.87" x2="37.92" y2="35.32"/>
    <path class="cls-3" d="M37.92,35.32c-1.17,.77-2.67,.8-3.86,.07"/>
    <line class="cls-3" x1="34.06" y1="35.4" x2="24.76" y2="28.95"/>
    <path class="cls-3" d="M24.76,28.95c-.46-.28-.72-.78-.69-1.32,.04-.53,.37-1,.86-1.22"/>
    <line class="cls-3" x1="24.93" y1="26.41" x2="42.43" y2="14.84"/>
    <path class="cls-3" d="M62.13,24.89c.01-.07,.02-.17,.03-.25,0-.07,0-.15,0-.22-.03-.35-.17-.69-.4-.99-.2-.27-.47-.5-.79-.7-.17-.1-.34-.19-.53-.27-.55-.22-1.17-.33-1.79-.32-.45,0-.9,.08-1.3,.21-.35,.11-.67,.27-.94,.47-.29,.21-.53,.46-.69,.75-.15,.27-.24,.56-.25,.86,0,.04,0,.11,0,.15"/>
    <path class="cls-3" d="M55.46,24.58c.11,.66,.51,1.23,1.09,1.56,.9,.6,2.39,.78,3.57,.47,1.13-.3,1.96-1.04,2.03-1.85,.09,.22,.12,.45,.11,.67,.07,1.2-1.78,2.25-3.58,2.19-1.8-.07-3.56-1.25-3.4-2.44,0-.2,.06-.41,.17-.6h0Z"/>
    <path class="cls-3" d="M15.91,44.71c.15,.71,.56,1.33,1.15,1.75,.04,.03,.09,.07,.12,.09"/>
    <line class="cls-3" x1="17.19" y1="46.56" x2="36.66" y2="61.42"/>
    <path class="cls-3" d="M36.66,61.42c2.3,1.58,5.35,1.52,7.58-.16"/>
    <line class="cls-3" x1="44.24" y1="61.26" x2="68.74" y2="41.59"/>
    <path class="cls-3" d="M68.74,41.59c.62-.43,1.07-1.07,1.24-1.81"/>
    <path class="cls-3" d="M69.98,39.79c-.09,.83-.52,1.6-1.19,2.1"/>
    <line class="cls-3" x1="68.78" y1="41.89" x2="44.38" y2="61.58"/>
    <path class="cls-3" d="M44.38,61.58c-2.31,1.74-5.47,1.8-7.85,.16"/>
    <line class="cls-3" x1="36.53" y1="61.74" x2="16.97" y2="46.78"/>
    <path class="cls-3" d="M16.97,46.78c-.49-.36-.87-.85-1.1-1.41"/>
    <g>
      <path class="cls-3" d="M44.79,40s.09,0,.12,.02"/>
      <line class="cls-3" x1="44.91" y1="40.02" x2="46.14" y2="40.86"/>
      <path class="cls-3" d="M46.14,40.86s.05,.06,.04,.1c-.01,.04-.06,.06-.1,.05"/>
      <path class="cls-3" d="M46.08,41l-1.67,.35s-.07,0-.1,0c-.04-.02-.05-.06-.03-.1"/>
      <path class="cls-3" d="M44.28,41.24l.43-1.14s.04-.1,.09-.11"/>
    </g>
    <path class="cls-3" d="M69.85,41.07c-.18,.7-.58,1.32-1.14,1.76"/>
    <line class="cls-3" x1="68.7" y1="42.83" x2="44.4" y2="62.52"/>
    <path class="cls-3" d="M44.4,62.52c-2.3,1.74-5.45,1.8-7.82,.16"/>
    <line class="cls-3" x1="36.59" y1="62.68" x2="17.1" y2="47.73"/>
    <path class="cls-3" d="M17.1,47.73c-.41-.31-.77-.7-1.05-1.13"/>
    <line class="cls-3" x1="16.05" y1="46.6" x2="15.74" y2="43.79"/>
    <path class="cls-3" d="M15.74,43.79c.2,.69,.63,1.3,1.21,1.73"/>
    <line class="cls-3" x1="16.94" y1="45.52" x2="36.6" y2="60.47"/>
    <path class="cls-3" d="M36.6,60.47c2.3,1.58,5.35,1.52,7.6-.14,.03,0,.06,.02,.09,0"/>
    <line class="cls-3" x1="44.29" y1="60.33" x2="68.78" y2="40.61"/>
    <path class="cls-3" d="M68.78,40.61c.51-.41,.88-.98,1.04-1.62"/>
    <polygon class="cls-3" points="63.42 28.16 63.32 28.23 62.64 27.54 62.71 27.47 63.42 28.16"/>
    <line class="cls-3" x1="61.88" y1="28.22" x2="62.19" y2="28.39"/>
    <path class="cls-3" d="M51.46,36.52c-.09-.13-.24-.24-.42-.31s-.4-.1-.61-.08c-.21,.02-.41,.08-.57,.18-.16,.1-.26,.23-.31,.37-.04,.14-.02,.29,.07,.42,.09,.13,.24,.24,.42,.31,.18,.07,.4,.1,.61,.08,.21-.02,.41-.08,.57-.18,.16-.1,.26-.23,.31-.37,.04-.14,.02-.29-.07-.42Z"/>
    <line class="cls-3" x1="115.77" y1="62.93" x2="135.85" y2="49.51"/>
    <path class="cls-3" d="M135.85,49.51c.65-.37,1.09-1.02,1.2-1.76"/>
    <path class="cls-3" d="M137.04,47.75c-.11,.74-.55,1.39-1.2,1.76"/>
    <path class="cls-3" d="M135.85,49.51l-20.08,13.43c-.27,.18-.76,.43-1.06,.56"/>
    <path class="cls-3" d="M114.71,63.49c-2.17,.83-4.58,.77-6.72-.15-.2-.09-.53-.27-.72-.38"/>
    <line class="cls-3" x1="107.27" y1="62.96" x2="80.69" y2="46.34"/>
    <path class="cls-3" d="M80.69,46.34c-.7-.36-1.18-1.04-1.29-1.82"/>
    <path class="cls-3" d="M79.4,44.52c.11,.78,.59,1.45,1.29,1.82"/>
    <line class="cls-3" x1="80.69" y1="46.34" x2="107.27" y2="62.96"/>
    <path class="cls-3" d="M137.21,45.69c-.19,.61-.6,1.13-1.15,1.46"/>
    <line class="cls-3" x1="136.05" y1="47.15" x2="115.85" y2="60.48"/>
    <path class="cls-3" d="M115.85,60.48c-2.65,1.5-5.89,1.51-8.55,.03"/>
    <line class="cls-3" x1="107.29" y1="60.51" x2="80.53" y2="44"/>
    <path class="cls-3" d="M80.53,44c-.48-.28-.85-.7-1.07-1.21-.15-.34-.23-.66-.25-.95,.02,.29,.11,.57,.28,.85,.21,.33,.67,.74,1.01,.95"/>
    <line class="cls-3" x1="80.5" y1="43.64" x2="107.36" y2="60.12"/>
    <path class="cls-3" d="M107.36,60.12c2.63,1.42,5.81,1.41,8.43-.03"/>
    <line class="cls-3" x1="115.79" y1="60.1" x2="136.08" y2="46.78"/>
    <path class="cls-3" d="M136.08,46.78c.65-.36,1.09-1.01,1.2-1.74"/>
    <path class="cls-3" d="M79.04,39.43l.38,4.32c-.07-.24-.11-.49-.12-.71,.02,.23,.08,.47,.2,.7"/>
    <path class="cls-3" d="M79.49,43.73c.32,.46,.74,.84,1.22,1.1"/>
    <line class="cls-3" x1="80.71" y1="44.84" x2="107.35" y2="61.39"/>
    <path class="cls-3" d="M107.35,61.39c2.44,1.36,5.38,1.48,7.92,.3,.15-.08,.35-.3,.5-.39"/>
    <line class="cls-3" x1="115.77" y1="61.29" x2="135.91" y2="48"/>
    <path class="cls-3" d="M135.91,48c.68-.35,1.15-1,1.27-1.75"/>
    <path class="cls-3" d="M109.52,29.98c.89,.02,1.71,.17,2.28,.47,1.16,.61,1.24,1.84,.11,2.47-1.13,.62-3.46,.63-4.68,.01-1.16-.59-1.33-1.74-.22-2.35"/>
    <path class="cls-3" d="M107.01,30.58c.77-.4,1.63-.6,2.51-.6"/>
    <path class="cls-3" d="M102.25,27.01c.67,0,1.29,.12,1.71,.34,.83,.44,.83,1.32-.01,1.76-.85,.44-2.54,.45-3.41,0-.87-.44-.91-1.34,.04-1.75"/>
    <path class="cls-3" d="M100.57,27.37c.53-.23,1.1-.35,1.68-.36"/>
    <path class="cls-3" d="M90.6,21.1c.68,0,1.3,.1,1.7,.31,.76,.4,.7,1.21-.14,1.62-.84,.41-2.47,.41-3.28,0-.74-.37-.79-1.08-.03-1.5"/>
    <path class="cls-3" d="M88.85,21.55c.54-.27,1.14-.42,1.75-.44"/>
    <path class="cls-3" d="M137.41,43.29c-.2,.59-.61,1.09-1.15,1.41"/>
    <line class="cls-3" x1="136.26" y1="44.7" x2="115.93" y2="57.93"/>
    <path class="cls-3" d="M115.93,57.93c-2.68,1.49-5.93,1.5-8.62,.03"/>
    <line class="cls-3" x1="107.31" y1="57.96" x2="80.36" y2="41.58"/>
    <path class="cls-3" d="M80.36,41.58c-.55-.3-.98-.77-1.21-1.35"/>
    <path class="cls-3" d="M120.63,45.19c.04-.49,.29-.93,.69-1.21"/>
    <line class="cls-3" x1="121.32" y1="43.98" x2="132.7" y2="37.02"/>
    <path class="cls-3" d="M132.7,37.02c.13-.1,.31-.11,.44,0,.13,.1,.17,.28,.1,.43"/>
    <line class="cls-3" x1="133.23" y1="37.45" x2="133.18" y2="38.1"/>
    <path class="cls-3" d="M133.18,38.1c-.05,.46-.29,.88-.65,1.15"/>
    <line class="cls-3" x1="132.53" y1="39.25" x2="121.22" y2="46.26"/>
    <path class="cls-3" d="M121.22,46.26c-.13,.12-.32,.14-.46,.04-.15-.09-.21-.28-.15-.44"/>
    <polyline class="cls-3" points="120.6 45.86 120.61 45.61 120.63 45.19"/>
    <g>
      <g>
        <path class="cls-3" d="M87.83,25.08l-1.39,.66c-.1,.05-.18,.06-.22-.03"/>
        <path class="cls-3" d="M86.22,25.71l-.4-.89c-.04-.09,.07-.1,.17-.08"/>
        <line class="cls-3" x1="86" y1="24.74" x2="87.78" y2="24.97"/>
      </g>
      <path class="cls-3" d="M87.83,25.08c.08-.04,.03-.1-.05-.11"/>
    </g>
    <path class="cls-3" d="M137.43,43.42l-.04,.4,.04-.4Z"/>
    <path class="cls-3" d="M77.91,23.52c0-.66,.33-1.27,.88-1.64"/>
    <path class="cls-3" d="M78.78,21.88c-.54,.37-.87,.98-.88,1.64"/>
    <path class="cls-3" d="M79.26,21.48c.22-.18,.49-.35,.79-.51-.3,.15-.57,.32-.79,.51Z"/>
    <path class="cls-3" d="M79.26,21.48c-.56,.34-.86,.97-.76,1.62s.56,1.17,1.19,1.34"/>
    <line class="cls-3" x1="79.69" y1="24.44" x2="107.9" y2="39.8"/>
    <path class="cls-3" d="M107.9,39.8c2.55,1.24,5.54,1.23,8.08-.02"/>
    <line class="cls-3" x1="115.98" y1="39.77" x2="137.25" y2="27.35"/>
    <path class="cls-3" d="M137.25,27.35c.62-.21,1.05-.76,1.12-1.41,.07-.65-.25-1.27-.81-1.61-.31-.26-.71-.5-1.16-.7,.45,.2,.85,.44,1.16,.7"/>
    <path class="cls-3" d="M101.68,11.14l-21.39,9.73,21.39-9.73Z"/>
    <path class="cls-3" d="M99.4,28.83c.1,.53,.81,1.01,1.76,1.2,1.05,.21,2.38,.08,3.13-.34"/>
    <path class="cls-3" d="M104.29,29.69c.37-.17,.66-.47,.81-.84,.02-.09,.03-.16,.03-.21"/>
    <path class="cls-3" d="M105.13,28.64v1.19c-.16,.23-.41,.44-.72,.6-.8,.45-2.2,.59-3.3,.36-1.1-.23-1.9-.83-1.88-1.43,0-.18,.05-.36,.17-.53"/>
    <path class="cls-3" d="M99.38,28.68s0-.05,0-.07c.01-.28,.13-.55,.32-.77,.1-.11,.21-.21,.34-.3,.1-.07,.2-.13,.31-.19,.53-.27,1.22-.41,1.9-.41,.69,0,1.37,.13,1.9,.4,.1,.05,.19,.11,.28,.17,.14,.1,.26,.2,.37,.32,.19,.23,.31,.5,.32,.79"/>
    <path class="cls-3" d="M93.5,25.55c.02-.28,.15-.54,.35-.76,.07-.08,.16-.16,.25-.22,.12-.09,.25-.17,.4-.24,.53-.26,1.2-.39,1.87-.39,.67,0,1.34,.13,1.85,.39,.09,.05,.18,.1,.26,.15,.14,.1,.26,.2,.36,.33,.17,.21,.28,.46,.29,.73"/>
    <path class="cls-3" d="M99.13,25.53l.11,.41c.03,.09,.05,.18,.05,.26"/>
    <path class="cls-3" d="M99.29,26.21c-.07,.51-.42,.94-.91,1.11-.79,.42-2.14,.56-3.2,.36-1.06-.21-1.84-.77-1.82-1.34,0-.1,.01-.21,.06-.32"/>
    <path class="cls-3" d="M93.42,26.02l.09-.49s0,.09,0,.13c-.02,.54,.72,1.07,1.73,1.26,1.01,.2,2.29,.06,3.04-.34"/>
    <path class="cls-3" d="M98.27,26.58c.38-.15,.68-.45,.83-.83"/>
    <path class="cls-3" d="M79.35,40.64c.04,.77,.5,1.46,1.2,1.79"/>
    <line class="cls-3" x1="80.55" y1="42.43" x2="107.43" y2="58.84"/>
    <path class="cls-3" d="M107.43,58.84c2.61,1.44,5.78,1.42,8.38-.05"/>
    <line class="cls-3" x1="115.8" y1="58.79" x2="136.12" y2="45.56"/>
    <path class="cls-3" d="M136.12,45.56c.68-.34,1.15-.98,1.28-1.73"/>
    <path class="cls-3" d="M121.07,44.21c.34-.03,.66-.11,.89-.24,3.25-1.99,6.39-3.92,9.42-5.77,.21-.13,.31-.31,.34-.49"/>
    <path class="cls-3" d="M131.71,37.7v-.07s0,.07,0,.07l-.07,1.24c-.01,.2-.17,.38-.35,.49-3.02,1.86-6.14,3.79-9.39,5.8-.31,.19-.79,.28-1.26,.36,.07,.09,.15,.12,.23,.07"/>
    <line class="cls-3" x1="120.87" y1="45.66" x2="121.08" y2="45.51"/>
    <path class="cls-3" d="M108.3,11.12c-2.13-.82-4.5-.82-6.62,.02"/>
    <path class="cls-3" d="M101.68,11.14c2.13-.83,4.49-.84,6.62-.02"/>
    <path class="cls-3" d="M79.21,41.84l-.06-.84,.06,.84Z"/>
    <g>
      <line class="cls-3" x1="98.87" y1="31.21" x2="97.32" y2="32.01"/>
      <path class="cls-3" d="M97.37,31.97s-.06,.04-.07,.07c0,.03,0,.07,.03,.09,.03,.02,.06,.03,.1,.02"/>
      <line class="cls-3" x1="97.39" y1="32.14" x2="99.49" y2="32.43"/>
      <path class="cls-3" d="M99.49,32.43s.09,.04,.13,.02c.04-.02,.07-.07,.06-.12"/>
      <line class="cls-3" x1="99.69" y1="32.33" x2="99.13" y2="31.25"/>
      <path class="cls-3" d="M98.87,31.21c.11-.06,.21-.07,.26,.04"/>
    </g>
    <path class="cls-3" d="M79.12,40.64l-.03-.47,.03,.47Z"/>
    <path class="cls-3" d="M79.29,43.04l-.04-.51,.04,.51Z"/>
    <path class="cls-3" d="M93.35,22.75c-.12,.66-1.39,1.21-2.68,1.25-1.33,.04-2.68-.45-2.79-1.12-.02-.08-.03-.22-.02-.31"/>
    <path class="cls-3" d="M87.86,22.58c.11-.54,.5-.98,1.02-1.16,.51-.24,1.18-.37,1.84-.38,.66,0,1.31,.12,1.8,.37,.08,.04,.16,.09,.24,.14,.14,.09,.26,.2,.36,.33,.15,.19,.25,.42,.26,.67"/>
    <polyline class="cls-3" points="93.37 22.55 93.38 22.85 93.41 23.65"/>
    <path class="cls-3" d="M93.41,23.65c-.19,.3-.47,.53-.8,.67-.78,.4-2.09,.54-3.12,.35s-1.78-.71-1.77-1.25c0-.13,.02-.26,.09-.39"/>
    <path class="cls-3" d="M138.03,24.74c.58,.4,.92,1.06,.92,1.76"/>
    <path class="cls-3" d="M138.95,26.5c0-.7-.34-1.36-.92-1.76"/>
    <path class="cls-3" d="M113.28,32.61c.1,.18,.15,.37,.14,.56"/>
    <path class="cls-3" d="M113.43,33.17c-.08,.62-.49,1.15-1.06,1.4-.07,.04-.17,.13-.24,.17-.99,.54-2.7,.68-4.03,.39-1.07-.23-1.9-.74-2.21-1.35-.07-.14-.13-.37-.13-.53"/>
    <path class="cls-3" d="M105.75,33.24v-.55s0-.21,0-.21c0-.1,0-.28,0-.38"/>
    <path class="cls-3" d="M105.75,32.1c.06-.72,.52-1.35,1.19-1.63,.68-.36,1.59-.56,2.51-.56,.92,0,1.83,.18,2.54,.54,.15,.08,.29,.16,.42,.25,.17,.12,.32,.25,.44,.39,.25,.28,.41,.62,.43,.98,0,.04,0,.12,0,.25"/>
    <path class="cls-3" d="M113.28,32.45c0,.09,0,.24,0,.33"/>
    <path class="cls-3" d="M113.27,32.78c-.08,.6-.47,1.1-1.02,1.34-.98,.58-2.75,.76-4.14,.45-1.39-.31-2.41-1.1-2.36-1.88"/>
    <path class="cls-3" d="M137.47,42.97l-.03,.33,.03-.33Z"/>
    <path class="cls-3" d="M137.36,44.19l-.08,.85,.08-.85Z"/>
    <path class="cls-3" d="M137.36,44.19c-.11,.73-.56,1.38-1.21,1.74"/>
    <line class="cls-3" x1="136.16" y1="45.93" x2="115.89" y2="59.21"/>
    <path class="cls-3" d="M115.89,59.21c-2.66,1.5-5.91,1.51-8.59,.03"/>
    <line class="cls-3" x1="107.3" y1="59.24" x2="80.45" y2="42.8"/>
    <path class="cls-3" d="M80.45,42.8c-.7-.35-1.18-1.02-1.3-1.79"/>
    <path class="cls-3" d="M80.28,20.86l-.18,.17,.18-.17Z"/>
    <path class="cls-3" d="M138.95,26.5l-1.44,16.11,1.44-16.11Z"/>
    <path class="cls-3" d="M138.95,26.5c-.13,.71-.59,1.32-1.25,1.63"/>
    <line class="cls-3" x1="137.7" y1="28.12" x2="116.47" y2="40.61"/>
    <path class="cls-3" d="M116.47,40.61c-2.85,1.41-6.19,1.42-9.05,.03"/>
    <line class="cls-3" x1="107.42" y1="40.63" x2="79.25" y2="25.19"/>
    <path class="cls-3" d="M79.25,25.19c-.71-.29-1.21-.92-1.35-1.68"/>
    <line class="cls-3" x1="137.51" y1="42.6" x2="137.15" y2="46.61"/>
    <path class="cls-3" d="M137.15,46.61c-.11,.74-.55,1.38-1.2,1.75"/>
    <line class="cls-3" x1="135.95" y1="48.36" x2="115.81" y2="61.74"/>
    <path class="cls-3" d="M115.81,61.74c-2.64,1.51-5.87,1.52-8.52,.03"/>
    <line class="cls-3" x1="107.28" y1="61.77" x2="80.61" y2="45.2"/>
    <path class="cls-3" d="M80.61,45.2c-.46-.26-.84-.65-1.09-1.11"/>
    <path class="cls-3" d="M136.39,23.64l-28.09-12.51,28.09,12.51Z"/>
    <path class="cls-3" d="M137.15,46.61l-.1,1.14,.1-1.14Z"/>
    <line class="cls-3" x1="113.54" y1="31.16" x2="94.68" y2="21.64"/>
    <path class="cls-3" d="M94.68,21.64c-.45-.11-.76-.52-.73-.98,.03-.46,.39-.84,.85-.88"/>
    <line class="cls-3" x1="94.79" y1="19.77" x2="104.32" y2="15.26"/>
    <path class="cls-3" d="M104.32,15.26c1.18-.48,2.49-.48,3.67,0"/>
    <line class="cls-3" x1="107.99" y1="15.25" x2="126.8" y2="23.9"/>
    <path class="cls-3" d="M126.8,23.9c.48,.02,.88,.38,.96,.86,.08,.48-.19,.95-.64,1.12"/>
    <line class="cls-3" x1="127.12" y1="25.89" x2="117.64" y2="31.15"/>
    <path class="cls-3" d="M117.64,31.15c-1.3,.6-2.8,.61-4.11,.01"/>
    <path class="cls-3" d="M79.4,44.52l-.05-.75,.05,.75Z"/>
    <path class="cls-3" d="M95.75,21.11c.02-.15,.13-.28,.28-.33"/>
    <line class="cls-3" x1="96.04" y1="20.78" x2="105.55" y2="16.22"/>
    <path class="cls-3" d="M105.55,16.22c.39-.16,.83-.16,1.23,0"/>
    <line class="cls-3" x1="106.78" y1="16.22" x2="125.58" y2="24.96"/>
    <path class="cls-3" d="M125.58,24.96c.17,.05,.3,.2,.32,.38,0,.1-.09,.21-.22,.28"/>
    <line class="cls-3" x1="125.68" y1="25.62" x2="116.2" y2="30.85"/>
    <path class="cls-3" d="M116.2,30.85c-.43,.2-.93,.2-1.36,0"/>
    <path class="cls-3" d="M114.84,30.85l-18.84-9.45c-.15-.07-.25-.19-.25-.29"/>
    <line class="cls-3" x1="131.65" y1="39.02" x2="132.19" y2="38.68"/>
    <path class="cls-3" d="M132.19,38.68c.19-.14,.3-.35,.33-.58"/>
    <polyline class="cls-3" points="132.52 38.1 132.57 37.45 132.59 37.09"/>
    <path class="cls-3" d="M137.23,45.68l-.05,.57,.05-.57Z"/>
    <path class="cls-3" d="M79.04,39.43l-1.13-15.91,1.13,15.91Z"/>
    <g>
      <path class="cls-3" d="M106.88,36.43s.04,.09,.02,.13c-.01,.04-.05,.09-.11,.13-.06,.04-.14,.07-.22,.09-.09,.02-.18,.02-.27,0-.1-.01-.19-.05-.26-.08-.09-.04-.17-.1-.21-.16-.04-.05-.05-.11-.03-.17,.02-.06,.08-.11,.14-.16,.05,.02,.1,.04,.15,.06-.04,.04-.08,.08-.09,.11-.01,.04,0,.08,.03,.11,.03,.04,.08,.08,.14,.11,.05,.03,.11,.05,.18,.06,.05,0,.11,.01,.17,0,.05,0,.09-.03,.13-.05,.08-.05,.07-.11,.01-.18-.02-.02-.08-.08-.14-.13-.07-.06-.12-.11-.14-.14,0,0,0-.01-.01-.02-.02-.04-.03-.07,0-.11,.01-.03,.05-.08,.09-.11,.05-.04,.12-.06,.2-.08,.08-.01,.17-.01,.25,0,.09,.01,.17,.04,.24,.08,.08,.04,.14,.08,.18,.13,.03,.05,.05,.1,.04,.15-.02,.05-.06,.1-.11,.14-.05-.02-.1-.04-.15-.06,.05-.05,.08-.1,.08-.14,0-.05-.07-.09-.14-.13-.07-.04-.16-.07-.25-.06-.06,0-.13,.02-.17,.05-.04,.03-.06,.06-.05,.1,0,.03,.08,.1,.14,.15,.08,.07,.14,.12,.17,.16,.01,.02,0,0,0,0"/>
      <polygon class="cls-3" points="104.45 35.87 104.31 35.8 105.4 35.11 106.11 35.46 105.99 35.54 105.41 35.26 105.08 35.47 105.58 35.72 105.45 35.8 104.95 35.55 104.45 35.87"/>
      <path class="cls-3" d="M103.8,35.08c.2-.05,.39-.1,.57-.15"/>
      <polyline class="cls-3" points="104.38 34.92 104.11 35.26 104.08 35.29 103.78 35.66 103.96 35.75 104.64 34.86 104.64 34.85 104.5 34.78 104.44 34.75 102.87 35.12 102.8 35.14 102.87 35.19 103.03 35.27 103.66 35.11 104.09 35.28 103.8 35.08"/>
      <polygon class="cls-3" points="105.2 36.28 106.63 35.68 106.52 35.63 105.08 36.21 105.2 36.28"/>
    </g>
    <path class="cls-3" d="M93.38,28.54c-.03-.12-.13-.23-.29-.31-.16-.08-.37-.14-.6-.17-.23-.02-.47,0-.68,.04-.21,.05-.39,.13-.5,.23-.11,.1-.16,.22-.13,.34,.03,.11,.13,.23,.29,.31,.16,.08,.37,.14,.6,.17,.23,.02,.47,0,.68-.04,.21-.05,.39-.13,.5-.23,.11-.1,.16-.22,.13-.34Z"/>
    <path class="cls-3" d="M120.62,18.21c-.04-.16-.17-.32-.38-.44-.21-.12-.49-.21-.78-.24-.3-.03-.61-.01-.89,.06-.28,.07-.51,.19-.66,.33-.15,.15-.21,.32-.17,.48s.17,.32,.38,.44c.21,.12,.49,.21,.78,.24,.3,.03,.61,.01,.89-.06,.27-.07,.51-.19,.66-.33,.15-.14,.21-.32,.17-.48Z"/>
    <path class="cls-3" d="M137.36,44.19l-.08,.85,.08-.85Z"/>
    <path class="cls-3" d="M138.95,26.5l-1.44,16.11,1.44-16.11Z"/>
    <path class="cls-3" d="M33.57,18.31c-.1-.2-.28-.37-.5-.47-.22-.11-.47-.15-.72-.13-.25,.03-.48,.12-.67,.27-.18,.15-.31,.35-.36,.56-.05,.21-.02,.44,.09,.64,.1,.2,.28,.37,.5,.47,.22,.11,.47,.15,.72,.13s.48-.12,.67-.27c.18-.15,.31-.35,.36-.56,.05-.21,.02-.44-.09-.64Z"/>
    <path class="cls-2" d="M13.28,18.33s0-.06,0-.08H30.95"/>
    <path class="cls-2" d="M3.13,46.01s0-.07,0-.11H22.24"/>
    <path class="cls-2" d="M11.36,52.71s0-.07,0-.11H30.47"/>
    <path class="cls-2" d="M127.04,40.99s0-.03,0-.05h14.67"/>
    <path class="cls-2" d="M56.35,2.21s0-.07,0-.11h6.44"/>
    <path class="cls-2" d="M67.21,11.46s0-.07,0-.11h6.44"/>
    <path class="cls-2" d="M46.07,18.39s-.01,0-.02-.01L56.21,2.19"/>
    <path class="cls-2" d="M59.99,23.21s-.06-.04-.09-.06l7.47-11.91"/>
    <path class="cls-3" d="M93.67,28.55c-.03-.14-.16-.28-.36-.38-.2-.1-.46-.18-.74-.21-.28-.03-.58,0-.84,.05-.26,.06-.48,.16-.62,.29-.14,.13-.2,.27-.16,.42,.03,.14,.16,.28,.36,.38,.2,.1,.46,.18,.74,.21s.58,0,.84-.05c.26-.06,.48-.16,.62-.29,.14-.13,.2-.27,.16-.42Z"/>
    <path class="cls-3" d="M51.65,36.44c-.11-.16-.29-.29-.52-.38-.22-.09-.49-.12-.75-.1-.26,.02-.5,.1-.69,.22-.19,.12-.32,.28-.37,.45-.05,.17-.02,.35,.09,.51,.11,.16,.29,.29,.52,.38,.22,.09,.49,.12,.75,.1,.26-.02,.5-.1,.69-.22,.19-.12,.32-.28,.37-.45,.05-.17,.02-.35-.09-.51Z"/>
  </g>
</svg>